<?xml version="1.0" encoding="UTF-8" standalone="no"?>
<!-- Created with Inkscape (http://www.inkscape.org/) -->

<svg
   xmlns:dc="http://purl.org/dc/elements/1.1/"
   xmlns:cc="http://creativecommons.org/ns#"
   xmlns:rdf="http://www.w3.org/1999/02/22-rdf-syntax-ns#"
   xmlns:svg="http://www.w3.org/2000/svg"
   xmlns="http://www.w3.org/2000/svg"
   xmlns:sodipodi="http://sodipodi.sourceforge.net/DTD/sodipodi-0.dtd"
   xmlns:inkscape="http://www.inkscape.org/namespaces/inkscape"
   width="90mm"
   height="16.1mm"
   viewBox="0 0 90 16.1"
   version="1.1"
   id="svg8"
   inkscape:version="0.92.4 5da689c313, 2019-01-14"
   sodipodi:docname="Balken.svg">
  <defs
     id="defs2">
    <clipPath
       clipPathUnits="userSpaceOnUse"
       id="clipPath4500">
      <rect
         style="opacity:1;fill:#566367;fill-opacity:1;fill-rule:nonzero;stroke:none;stroke-width:1;stroke-linecap:butt;stroke-linejoin:miter;stroke-miterlimit:4;stroke-dasharray:none;stroke-dashoffset:0;stroke-opacity:1;paint-order:stroke fill markers"
         id="rect4502"
         width="491.17459"
         height="267.31964"
         x="-236.80078"
         y="15.565187" />
    </clipPath>
    <filter
       inkscape:collect="always"
       style="color-interpolation-filters:sRGB"
       id="filter5484"
       x="-0.13250443"
       width="1.2650089"
       y="-0.12010427"
       height="1.2402085">
      <feGaussianBlur
         inkscape:collect="always"
         stdDeviation="0.6845077"
         id="feGaussianBlur5486" />
    </filter>
    <filter
       inkscape:collect="always"
       style="color-interpolation-filters:sRGB"
       id="filter1745"
       x="-0.036041862"
       width="1.0720837"
       y="-0.27019532"
       height="1.5403906">
      <feGaussianBlur
         inkscape:collect="always"
         stdDeviation="0.90910403"
         id="feGaussianBlur1747" />
    </filter>
  </defs>
  <sodipodi:namedview
     id="base"
     pagecolor="#ffffff"
     bordercolor="#666666"
     borderopacity="1.0"
     inkscape:pageopacity="0.0"
     inkscape:pageshadow="2"
     inkscape:zoom="2.8330792"
     inkscape:cx="176.59866"
     inkscape:cy="61.685747"
     inkscape:document-units="mm"
     inkscape:current-layer="layer1"
     showgrid="false"
     inkscape:window-width="1920"
     inkscape:window-height="1022"
     inkscape:window-x="0"
     inkscape:window-y="0"
     inkscape:window-maximized="1"
     inkscape:object-paths="true"
     inkscape:snap-intersection-paths="true"
     inkscape:snap-midpoints="true"
     inkscape:snap-smooth-nodes="true"
     inkscape:snap-page="true" />
  <metadata
     id="metadata5">
    <rdf:RDF>
      <cc:Work
         rdf:about="">
        <dc:format>image/svg+xml</dc:format>
        <dc:type
           rdf:resource="http://purl.org/dc/dcmitype/StillImage" />
        <dc:title />
      </cc:Work>
    </rdf:RDF>
  </metadata>
  <g
     inkscape:label="Ebene 1"
     inkscape:groupmode="layer"
     id="layer1"
     transform="translate(0,-280.9)">
    <rect
       style="opacity:1;fill:#3a755f;fill-opacity:1;fill-rule:nonzero;stroke:none;stroke-width:0.86343074;stroke-linecap:butt;stroke-linejoin:miter;stroke-miterlimit:4;stroke-dasharray:none;stroke-dashoffset:0;stroke-opacity:1;paint-order:stroke fill markers"
       id="rect4496"
       width="90"
       height="16.036173"
       x="0"
       y="280.96384"
       inkscape:export-xdpi="79.195992"
       inkscape:export-ydpi="79.195992" />
    <g
       aria-label="Weidemonitor"
       style="font-style:normal;font-variant:normal;font-weight:normal;font-stretch:normal;font-size:10.58333302px;line-height:1.25;font-family:'Poiret One';-inkscape-font-specification:'Poiret One';letter-spacing:0px;word-spacing:0px;fill:#000000;fill-opacity:1;stroke:#000a29;stroke-width:0.30000001;stroke-miterlimit:4;stroke-dasharray:none;stroke-opacity:0.7;filter:url(#filter1745)"
       id="text1667">
      <path
         d="m 24.398902,292.89652 -3.481917,-8.07508 h 0.391583 l 3.14325,7.27075 1.471084,-3.43958 -1.640417,-3.83117 h 0.381 l 1.471083,3.48192 1.513417,-3.48192 h 0.296333 l -1.651,3.82059 1.502834,3.48191 3.206749,-7.3025 h 0.28575 l -3.524249,8.07508 -1.68275,-3.87349 z"
         style="font-style:normal;font-variant:normal;font-weight:normal;font-stretch:normal;font-family:'Poiret One';-inkscape-font-specification:'Poiret One';fill:#000000;fill-opacity:1;stroke:#000a29;stroke-width:0.30000001;stroke-miterlimit:4;stroke-dasharray:none;stroke-opacity:0.7"
         id="path862" />
      <path
         d="m 33.235966,292.88594 h -0.09525 q -1.005417,0 -1.756833,-0.75141 -0.740834,-0.762 -0.740834,-1.76742 0,-1.00542 0.740834,-1.73567 0.740833,-0.74083 1.830916,-0.74083 1.090084,0 1.87325,0.86783 l -3.323166,3.28084 q 0.687916,0.55033 1.322916,0.55033 0.635,0 1.132417,-0.28575 0.508,-0.29633 0.836083,-0.78317 v 0.53975 q -0.751416,0.8255 -1.820333,0.8255 z m -0.116417,-4.699 q -0.836083,0 -1.49225,0.65617 -0.645583,0.64558 -0.645583,1.49225 0,0.84667 0.560917,1.48167 l 3.07975,-3.05859 q -0.656167,-0.5715 -1.502834,-0.5715 z"
         style="font-style:normal;font-variant:normal;font-weight:normal;font-stretch:normal;font-family:'Poiret One';-inkscape-font-specification:'Poiret One';fill:#000000;fill-opacity:1;stroke:#000a29;stroke-width:0.30000001;stroke-miterlimit:4;stroke-dasharray:none;stroke-opacity:0.7"
         id="path864" />
      <path
         d="m 36.569704,288.00703 v 4.75191 h -0.338667 v -4.75191 z m -0.169333,-1.16417 q -0.306917,0 -0.306917,-0.28575 0,-0.28575 0.306917,-0.28575 0.306916,0 0.306916,0.28575 0,0.28575 -0.306916,0.28575 z"
         style="font-style:normal;font-variant:normal;font-weight:normal;font-stretch:normal;font-family:'Poiret One';-inkscape-font-specification:'Poiret One';fill:#000000;fill-opacity:1;stroke:#000a29;stroke-width:0.30000001;stroke-miterlimit:4;stroke-dasharray:none;stroke-opacity:0.7"
         id="path866" />
      <path
         d="m 42.7292,284.82144 v 7.9375 h -0.338667 v -1.15358 q -0.3175,0.58208 -0.92075,0.93133 -0.60325,0.33867 -1.23825,0.33867 -1.04775,0 -1.788583,-0.73025 -0.73025,-0.74083 -0.73025,-1.76742 0,-1.02658 0.73025,-1.75683 0.740833,-0.74083 1.788583,-0.74083 0.656167,0 1.259417,0.34925 0.613833,0.34925 0.899583,0.93133 v -4.33917 z m -4.677833,5.56684 q 0,0.889 0.635,1.54516 0.635,0.64558 1.523999,0.64558 0.899584,0 1.545167,-0.64558 0.656167,-0.65616 0.656167,-1.54516 0,-0.889 -0.656167,-1.54517 -0.645583,-0.66675 -1.534583,-0.66675 -0.889,0 -1.534583,0.65617 -0.635,0.65616 -0.635,1.55575 z"
         style="font-style:normal;font-variant:normal;font-weight:normal;font-stretch:normal;font-family:'Poiret One';-inkscape-font-specification:'Poiret One';fill:#000000;fill-opacity:1;stroke:#000a29;stroke-width:0.30000001;stroke-miterlimit:4;stroke-dasharray:none;stroke-opacity:0.7"
         id="path868" />
      <path
         d="m 46.380431,292.88594 h -0.09525 q -1.005416,0 -1.756833,-0.75141 -0.740833,-0.762 -0.740833,-1.76742 0,-1.00542 0.740833,-1.73567 0.740833,-0.74083 1.830917,-0.74083 1.090083,0 1.87325,0.86783 l -3.323167,3.28084 q 0.687917,0.55033 1.322917,0.55033 0.635,0 1.132416,-0.28575 0.508,-0.29633 0.836084,-0.78317 v 0.53975 q -0.751417,0.8255 -1.820334,0.8255 z m -0.116416,-4.699 q -0.836084,0 -1.49225,0.65617 -0.645584,0.64558 -0.645584,1.49225 0,0.84667 0.560917,1.48167 l 3.07975,-3.05859 q -0.656167,-0.5715 -1.502833,-0.5715 z"
         style="font-style:normal;font-variant:normal;font-weight:normal;font-stretch:normal;font-family:'Poiret One';-inkscape-font-specification:'Poiret One';fill:#000000;fill-opacity:1;stroke:#000a29;stroke-width:0.30000001;stroke-miterlimit:4;stroke-dasharray:none;stroke-opacity:0.7"
         id="path870" />
      <path
         d="m 52.53992,289.00186 q 0.15875,-0.508 0.60325,-0.81492 0.455084,-0.30691 1.100667,-0.30691 0.645583,0 1.132417,0.46566 0.486833,0.46567 0.486833,1.25942 v 3.15383 H 55.52442 v -3.15383 q 0,-0.61383 -0.402166,-1.016 -0.402167,-0.41275 -0.973667,-0.41275 -0.560917,0 -1.005417,0.42333 -0.433916,0.42334 -0.433916,0.98425 v 3.175 h -0.338667 v -3.175 q 0,-0.5715 -0.402167,-0.98425 -0.402166,-0.42333 -0.973666,-0.42333 -0.5715,0 -0.994834,0.42333 -0.423333,0.42334 -0.423333,0.98425 v 3.175 h -0.338666 v -4.7625 h 0.338666 v 0.66675 q 0.211667,-0.3175 0.624417,-0.55033 0.423333,-0.23283 0.867833,-0.23283 0.455083,0 0.867833,0.3175 0.41275,0.30691 0.60325,0.80433 z"
         style="font-style:normal;font-variant:normal;font-weight:normal;font-stretch:normal;font-family:'Poiret One';-inkscape-font-specification:'Poiret One';fill:#000000;fill-opacity:1;stroke:#000a29;stroke-width:0.30000001;stroke-miterlimit:4;stroke-dasharray:none;stroke-opacity:0.7"
         id="path872" />
      <path
         d="m 59.344986,292.87536 q -1.016,0 -1.74625,-0.75142 -0.73025,-0.762 -0.73025,-1.76741 0,-1.00542 0.740834,-1.73567 0.740833,-0.74083 1.778,-0.74083 1.04775,0 1.778,0.74083 0.740833,0.73025 0.740833,1.74625 0,1.00542 -0.719667,1.75683 -0.719666,0.75142 -1.74625,0.75142 z m 2.2225,-2.48708 q 0,-0.89959 -0.645583,-1.55575 -0.635,-0.65617 -1.524,-0.65617 -0.889,0 -1.545167,0.66675 -0.645583,0.65617 -0.645583,1.54517 0,0.889 0.645583,1.54516 0.656167,0.64558 1.545167,0.64558 0.899583,0 1.534583,-0.64558 0.635,-0.65616 0.635,-1.54516 z"
         style="font-style:normal;font-variant:normal;font-weight:normal;font-stretch:normal;font-family:'Poiret One';-inkscape-font-specification:'Poiret One';fill:#000000;fill-opacity:1;stroke:#000a29;stroke-width:0.30000001;stroke-miterlimit:4;stroke-dasharray:none;stroke-opacity:0.7"
         id="path874" />
      <path
         d="m 63.250232,292.75894 h -0.338666 v -4.7625 h 0.338666 v 0.96309 q 0.53975,-1.0795 1.8415,-1.0795 0.889,0 1.49225,0.61383 0.60325,0.61383 0.60325,1.49225 v 2.77283 h -0.338667 v -2.77283 q 0,-0.73025 -0.518583,-1.27 -0.508,-0.53975 -1.23825,-0.53975 -0.73025,0 -1.291166,0.53975 -0.550334,0.53975 -0.550334,1.27 z"
         style="font-style:normal;font-variant:normal;font-weight:normal;font-stretch:normal;font-family:'Poiret One';-inkscape-font-specification:'Poiret One';fill:#000000;fill-opacity:1;stroke:#000a29;stroke-width:0.30000001;stroke-miterlimit:4;stroke-dasharray:none;stroke-opacity:0.7"
         id="path876" />
      <path
         d="m 68.933462,288.00703 v 4.75191 h -0.338666 v -4.75191 z m -0.169333,-1.16417 q -0.306917,0 -0.306917,-0.28575 0,-0.28575 0.306917,-0.28575 0.306917,0 0.306917,0.28575 0,0.28575 -0.306917,0.28575 z"
         style="font-style:normal;font-variant:normal;font-weight:normal;font-stretch:normal;font-family:'Poiret One';-inkscape-font-specification:'Poiret One';fill:#000000;fill-opacity:1;stroke:#000a29;stroke-width:0.30000001;stroke-miterlimit:4;stroke-dasharray:none;stroke-opacity:0.7"
         id="path878" />
      <path
         d="m 72.044956,292.52611 v 0.29633 q -0.751417,0 -1.280583,-0.49742 -0.529167,-0.50799 -0.529167,-1.29116 v -4.953 h 0.338667 v 1.92617 h 1.4605 v 0.29633 h -1.4605 v 2.7305 q 0,0.64558 0.423333,1.06892 0.433917,0.42333 1.04775,0.42333 z"
         style="font-style:normal;font-variant:normal;font-weight:normal;font-stretch:normal;font-family:'Poiret One';-inkscape-font-specification:'Poiret One';fill:#000000;fill-opacity:1;stroke:#000a29;stroke-width:0.30000001;stroke-miterlimit:4;stroke-dasharray:none;stroke-opacity:0.7"
         id="path880" />
      <path
         d="m 75.103531,292.87536 q -1.016,0 -1.74625,-0.75142 -0.73025,-0.762 -0.73025,-1.76741 0,-1.00542 0.740834,-1.73567 0.740833,-0.74083 1.778,-0.74083 1.04775,0 1.778,0.74083 0.740833,0.73025 0.740833,1.74625 0,1.00542 -0.719667,1.75683 -0.719666,0.75142 -1.74625,0.75142 z m 2.2225,-2.48708 q 0,-0.89959 -0.645583,-1.55575 -0.635,-0.65617 -1.524,-0.65617 -0.889,0 -1.545167,0.66675 -0.645583,0.65617 -0.645583,1.54517 0,0.889 0.645583,1.54516 0.656167,0.64558 1.545167,0.64558 0.899583,0 1.534583,-0.64558 0.635,-0.65616 0.635,-1.54516 z"
         style="font-style:normal;font-variant:normal;font-weight:normal;font-stretch:normal;font-family:'Poiret One';-inkscape-font-specification:'Poiret One';fill:#000000;fill-opacity:1;stroke:#000a29;stroke-width:0.30000001;stroke-miterlimit:4;stroke-dasharray:none;stroke-opacity:0.7"
         id="path882" />
      <path
         d="m 81.453527,288.64203 q -0.465667,-0.46567 -1.026583,-0.46567 -0.560917,0 -0.994834,0.42333 -0.423333,0.42334 -0.423333,0.98425 v 3.175 H 78.67011 v -4.7625 h 0.338667 v 0.70909 q 0.1905,-0.35984 0.592667,-0.59267 0.402166,-0.23283 0.899583,-0.23283 0.497417,0 0.9525,0.33866 z"
         style="font-style:normal;font-variant:normal;font-weight:normal;font-stretch:normal;font-family:'Poiret One';-inkscape-font-specification:'Poiret One';fill:#000000;fill-opacity:1;stroke:#000a29;stroke-width:0.30000001;stroke-miterlimit:4;stroke-dasharray:none;stroke-opacity:0.7"
         id="path884" />
    </g>
    <rect
       style="opacity:1;fill:#2e2e9e;fill-opacity:1;fill-rule:nonzero;stroke:none;stroke-width:0.30000001;stroke-linecap:butt;stroke-linejoin:miter;stroke-miterlimit:4;stroke-dasharray:none;stroke-dashoffset:0;stroke-opacity:1;paint-order:stroke fill markers"
       id="rect4678"
       width="0.46695364"
       height="0.46695364"
       x="-10.468074"
       y="275.51428" />
    <g
       id="g4514"
       transform="matrix(0.74949189,0,0,0.74949189,-89.683773,0.0146929)"
       style="stroke-width:1.33423722"
       inkscape:export-xdpi="79.195992"
       inkscape:export-ydpi="79.195992">
      <rect
         y="374.85281"
         x="119.65943"
         height="21.396059"
         width="21.396059"
         id="rect4510"
         style="opacity:1;fill:#4e9d7f;fill-opacity:1;stroke:none;stroke-width:0.40027118;stroke-linecap:round;stroke-linejoin:round;stroke-miterlimit:4;stroke-dasharray:none;stroke-dashoffset:0;stroke-opacity:1;paint-order:normal"
         ry="3.1077988" />
      <path
         inkscape:connector-curvature="0"
         id="path4566"
         d="m 128.47273,378.61836 c -0.0135,0 -0.0281,4.9e-4 -0.0417,0 -0.12518,0.004 -0.25281,-0.002 -0.37362,0.0347 -0.16418,0.0185 -0.32749,0.0479 -0.48667,0.0914 -0.0446,0.009 -0.0854,0.0452 -0.0639,0.0936 0.0171,0.0626 0.0442,0.12186 0.0578,0.18546 0.0326,0.0372 0.0919,10e-4 0.13393,0.003 0.12115,-0.0178 0.23654,-0.0619 0.36016,-0.0643 0.0491,10e-4 0.0992,-0.0248 0.14637,-0.018 0.0748,0.0577 0.0442,0.16412 0.0585,0.24533 0.0101,0.21288 0.0243,0.42536 0.047,0.63705 0.0135,0.1473 0.002,0.29944 0.0399,0.44316 0.0296,0.0409 0.0911,6.3e-4 0.13208,0.007 0.0499,-0.0123 0.12888,0.008 0.15744,-0.045 -0.0217,-0.22359 -0.0168,-0.45092 -0.047,-0.67371 -0.0168,-0.26425 -0.0151,-0.53006 -0.0569,-0.79207 -0.0101,-0.0457 0.005,-0.10561 -0.0223,-0.14347 -0.0135,-0.004 -0.0272,-0.004 -0.0412,-0.005 z m 1.05861,0.11173 c -0.0485,0.0337 -0.0506,0.10685 -0.0676,0.15983 -0.005,0.0484 -0.038,0.12825 0.0318,0.14478 0.087,0.0369 0.18191,0.05 0.26913,0.0872 0.0628,0.0155 0.11948,0.0495 0.18115,0.0694 0.0386,0.0317 0.10686,0.0221 0.13106,0.0692 3.5e-4,0.0755 -0.0507,0.13727 -0.0697,0.20786 -0.0284,0.0692 -0.0556,0.13967 -0.0825,0.20887 -0.0292,0.0669 -0.0534,0.13712 -0.0822,0.20384 -0.0322,0.0775 -0.062,0.15722 -0.0922,0.2359 -0.0352,0.0576 -0.0452,0.12696 -0.0781,0.18616 -0.002,0.0489 -0.065,0.0929 -0.0321,0.14165 0.0865,0.0349 0.16719,0.0896 0.25679,0.11474 0.029,-0.0691 0.061,-0.137 0.0867,-0.20756 0.0294,-0.0634 0.0509,-0.12942 0.079,-0.1932 0.0269,-0.0633 0.0518,-0.12887 0.0795,-0.19159 0.0301,-0.0611 0.0444,-0.12952 0.0765,-0.18988 0.019,-0.0598 0.0511,-0.11559 0.066,-0.17652 0.0371,-0.0548 0.0475,-0.12229 0.0802,-0.17913 0.0226,-0.077 0.0607,-0.14807 0.0876,-0.22313 0.0243,-0.0348 0.037,-0.11282 -0.0214,-0.11976 -0.0628,-0.046 -0.13644,-0.0722 -0.20796,-0.10216 -0.0491,-0.0321 -0.10351,-0.052 -0.15946,-0.0697 -0.0632,-0.0298 -0.12922,-0.0513 -0.1941,-0.0774 -0.083,-0.0166 -0.15795,-0.0586 -0.24202,-0.0726 -0.0322,-0.008 -0.0628,-0.0253 -0.0961,-0.0268 z m -2.96273,0.44898 c -0.0521,0.007 -0.0901,0.0496 -0.1378,0.0676 -0.15224,0.11053 -0.30849,0.21692 -0.44687,0.34539 -0.0707,0.0671 -0.15509,0.12873 -0.20263,0.2146 0.0225,0.0607 0.0882,0.0975 0.12989,0.14627 0.0256,0.0304 0.0756,0.0678 0.10587,0.0203 0.12266,-0.0919 0.22467,-0.21007 0.34962,-0.30059 0.0393,-0.0336 0.11058,-0.0865 0.14922,-0.0235 0.0376,0.0574 0.0655,0.1208 0.10653,0.17481 0.0318,0.08 0.0913,0.14599 0.12384,0.22645 0.0373,0.0411 0.0522,0.0992 0.0882,0.14266 0.0933,0.16678 0.19096,0.33127 0.28533,0.49741 0.0237,0.0282 0.0303,0.0993 0.0828,0.0688 0.0591,-0.0318 0.11158,-0.0773 0.16971,-0.11191 0.0502,-0.0312 0.0423,-0.0761 0.008,-0.11754 -0.034,-0.0729 -0.0805,-0.13717 -0.11863,-0.20686 -0.0598,-0.0851 -0.0963,-0.18778 -0.15644,-0.27166 -0.0263,-0.041 -0.0427,-0.0913 -0.0763,-0.12981 -0.0536,-0.0955 -0.10501,-0.19193 -0.16265,-0.28421 -0.0503,-0.0988 -0.11427,-0.18886 -0.16485,-0.28784 -0.0384,-0.053 -0.0573,-0.12402 -0.10519,-0.16786 -0.008,-0.003 -0.0187,-0.003 -0.028,-0.002 z m 4.71252,0.52121 h -0.002 c -0.0721,0.0558 -0.1398,0.12542 -0.18756,0.20395 -0.0135,0.0491 0.0538,0.077 0.0773,0.11231 0.12636,0.1263 0.24027,0.26621 0.3457,0.4097 -0.002,0.0593 -0.0711,0.0914 -0.10553,0.13292 -0.20912,0.18975 -0.42773,0.36836 -0.63705,0.55798 -0.0393,0.028 -0.10587,0.0733 -0.0692,0.1286 0.0486,0.0633 0.0838,0.14285 0.15107,0.18807 0.0402,0.0131 0.0556,-0.0476 0.0885,-0.0616 0.15963,-0.12966 0.31014,-0.27032 0.46737,-0.40237 0.15611,-0.12572 0.29941,-0.26844 0.45713,-0.39312 0.0399,-0.0255 0.0798,-0.0802 0.0378,-0.12257 -0.0417,-0.0659 -0.0852,-0.12987 -0.12753,-0.1944 -0.0862,-0.10589 -0.15981,-0.22099 -0.25619,-0.31847 -0.0758,-0.083 -0.14972,-0.17106 -0.237,-0.24122 z m -6.11191,0.91143 c -0.0449,0.0169 -0.0494,0.0822 -0.0758,0.11774 -0.0242,0.0466 -0.0564,0.0865 -0.0689,0.13874 -0.0409,0.0662 -0.0607,0.14136 -0.0943,0.21148 -0.0219,0.0658 -0.0503,0.13018 -0.0728,0.19632 -0.0304,0.07 -0.0396,0.1472 -0.0691,0.21791 -0.0168,0.0439 0.007,0.0972 0.0607,0.0925 0.0704,0.006 0.13628,0.0366 0.20447,0.0472 0.0392,-0.0236 0.0246,-0.0854 0.0525,-0.12017 0.024,-0.072 0.0376,-0.14709 0.0706,-0.21609 0.0169,-0.0648 0.0525,-0.12282 0.0717,-0.18667 0.0256,-0.0309 0.06,-0.0949 0.0988,-0.0449 0.0645,0.0485 0.13493,0.0898 0.20123,0.13372 0.0553,0.0483 0.12687,0.0763 0.18356,0.12479 0.17651,0.11907 0.35716,0.23192 0.53135,0.35434 0.0496,0.0131 0.0803,0.084 0.13645,0.0638 0.0404,-0.0708 0.0748,-0.14639 0.11694,-0.2159 0.007,-0.078 -0.0911,-0.0987 -0.13912,-0.13915 -0.10738,-0.0724 -0.21482,-0.14787 -0.32411,-0.2154 -0.0439,-0.0367 -0.0976,-0.0603 -0.1435,-0.0965 -0.14099,-0.084 -0.27115,-0.18392 -0.4107,-0.26975 -0.0405,-0.0266 -0.0788,-0.0525 -0.11897,-0.0804 -0.0724,-0.0351 -0.12434,-0.11134 -0.21068,-0.11373 z m 7.00707,0.41663 c -0.007,-6.4e-4 -0.0151,0 -0.0229,0.002 -0.0711,0.0116 -0.13947,0.0446 -0.20296,0.0739 -0.0639,0.0733 0.0318,0.16178 0.0425,0.239 0.047,0.14315 0.0943,0.28891 0.12234,0.43623 -0.0243,0.0395 -0.0975,0.007 -0.13713,0.0204 -0.66444,0.0111 -1.32936,0.022 -1.99373,0.008 -0.12216,-0.0326 -0.1924,-0.15636 -0.30842,-0.20505 -0.083,-0.0385 -0.14872,-0.10531 -0.24003,-0.12378 -0.087,-0.0373 -0.16945,-0.0848 -0.26522,-0.0932 -0.28907,-0.0926 -0.60068,-0.0701 -0.89454,-0.0134 -0.0995,0.0302 -0.20722,0.0487 -0.29807,0.0967 -0.0428,0.0278 -0.0948,0.0403 -0.13478,0.0722 -0.27929,0.1573 -0.52434,0.38679 -0.69178,0.66187 -0.0224,0.0515 -0.0607,0.0901 -0.0734,0.14546 -0.0576,0.0912 -0.0849,0.20014 -0.11879,0.30281 -0.11914,0.4304 -0.0662,0.90275 0.13409,1.30062 0.18206,0.36443 0.4992,0.65432 0.86552,0.82723 0.18184,0.0786 0.37771,0.13097 0.57615,0.14929 0.18682,0.006 0.37747,0.015 0.55939,-0.0333 0.10737,0.0131 0.13275,0.14669 0.20073,0.21418 0.17451,0.26002 0.35493,0.51778 0.52273,0.78122 0.005,0.0883 -0.11595,0.0794 -0.1714,0.11222 -0.13677,0.0391 -0.27206,0.0803 -0.41352,0.10237 -0.11106,0.0268 -0.22656,0.0225 -0.33996,0.028 -0.007,-0.26872 -0.005,-0.54079 -0.0184,-0.80744 -0.0944,0.002 -0.19669,3e-5 -0.2865,0.019 -0.0151,0.27111 -0.0135,0.543 -0.0198,0.81447 -0.47714,0.003 -0.95638,-0.0909 -1.39325,-0.2818 -0.0701,0.002 -0.13745,-0.0755 -0.0797,-0.13683 0.13073,-0.19499 0.26587,-0.39134 0.40187,-0.58039 0.0501,-0.0625 0.0694,-0.11212 -0.0202,-0.14799 -0.0613,-0.0209 -0.11746,-0.0956 -0.18556,-0.0786 -0.10906,0.11277 -0.18042,0.25855 -0.27768,0.38217 -0.0546,0.0927 -0.11578,0.17666 -0.18033,0.26272 -0.0279,0.0449 -0.0773,0.12112 -0.13729,0.0706 -0.29515,-0.1576 -0.55276,-0.37536 -0.77338,-0.6257 -0.10402,-0.12694 -0.22665,-0.2469 -0.29547,-0.39724 0.002,-0.0654 0.0991,-0.058 0.14031,-0.0915 0.23786,-0.11137 0.48479,-0.19987 0.72315,-0.31144 0.0541,5.7e-4 0.0931,-0.0529 0.0586,-0.10047 -0.0484,-0.0561 -0.0632,-0.13961 -0.11813,-0.18777 -0.0889,-0.003 -0.16484,0.0693 -0.24854,0.0943 -0.30339,0.13945 -0.60881,0.27482 -0.91475,0.40839 -0.0415,0.0244 -0.13476,0.0647 -0.0704,0.11514 0.0775,0.12914 0.17728,0.25053 0.24634,0.38096 v 5.59552 c 0.0906,0.0893 0.23257,0.083 0.34147,0.14156 0.0781,0.0235 0.15443,0.0492 0.22966,0.0803 0.28693,0.09 0.57005,0.19488 0.85628,0.28853 0.21866,0.0801 0.44157,0.1494 0.66066,0.22655 0.0981,0.0376 0.19833,0.0686 0.29797,0.10128 0.0728,0.0236 0.14149,0.0526 0.21481,0.0758 0.12014,0.0444 0.243,0.075 0.36066,0.12428 0.14367,0.0384 0.2813,0.10482 0.42536,0.14657 0.28399,0.0916 0.56532,0.18844 0.84723,0.28824 0.20869,0.0638 0.41208,0.14153 0.61888,0.21078 0.079,0.0254 0.15643,0.0511 0.23427,0.0795 0.11426,0.0287 0.1764,-0.10541 0.25308,-0.16407 0.49108,-0.51163 0.99325,-1.0131 1.47261,-1.53571 0.0516,-0.0726 0.0135,-0.17393 0.0277,-0.2577 0.004,-0.76648 0.0101,-1.5336 -0.008,-2.29975 -0.0564,-0.046 -0.14686,-0.0136 -0.21508,-0.0249 -0.29317,-0.004 -0.61965,0.0257 -0.86683,-0.16486 -0.23841,-0.16486 -0.36285,-0.43599 -0.52371,-0.6676 -0.0203,-0.038 -0.0704,-0.0934 -0.008,-0.12246 0.0711,-0.0433 0.13745,-0.12058 0.22203,-0.1292 0.10871,0.10932 0.18003,0.25205 0.27337,0.37483 0.081,0.11255 0.16601,0.23493 0.28621,0.30642 0.0744,0.0196 0.13375,0.0799 0.21662,0.0585 h 3.75419 c 0.29363,-0.0718 0.58706,-0.1887 0.79789,-0.41382 0.13325,-0.13177 0.27699,-0.25698 0.39069,-0.40578 -0.13862,-0.26094 -0.33242,-0.4902 -0.48062,-0.74575 0.0689,-0.0761 0.16063,-0.14221 0.2556,-0.18174 0.0946,0.072 0.14299,0.19387 0.21539,0.28743 0.0882,0.11846 0.14988,0.26257 0.26291,0.35956 0.0657,0.0121 0.078,-0.0899 0.10906,-0.1298 0.1361,-0.26933 0.11292,-0.60104 -0.0465,-0.85507 -0.18434,-0.29058 -0.38558,-0.57028 -0.57376,-0.85847 -0.34032,-0.49602 -0.66989,-0.99985 -1.00997,-1.49634 -0.31231,-0.45118 -0.59996,-0.92006 -0.93081,-1.35808 -0.23989,-0.29448 -0.58145,-0.48548 -0.93443,-0.61224 -0.39344,-0.12788 -0.81302,-0.10607 -1.22095,-0.12166 -0.019,-0.0389 -0.0252,-0.10168 -0.0726,-0.1061 z m -4.30345,0.86882 h 0.004 c 0.098,0.0707 0.14669,0.19491 0.22031,0.28944 0.0884,0.14011 0.19346,0.27343 0.27035,0.41884 -0.10619,0.13354 -0.2648,0.21549 -0.39221,0.32802 -0.22337,0.17675 -0.44937,0.35093 -0.67483,0.52453 -0.0659,0.0421 -0.0722,-0.0711 -0.0795,-0.11001 -0.0202,-0.23791 -0.0225,-0.4892 0.0684,-0.7134 0.0499,-0.16036 0.14099,-0.30928 0.24061,-0.44426 0.10233,-0.10837 0.20333,-0.23585 0.3437,-0.29336 z m -3.1752,0.64619 c -0.0607,-0.002 -0.0329,0.0816 -0.04,0.11855 0.004,0.20954 0.0177,0.4196 0.0642,0.6244 0.008,0.097 0.0333,0.19461 0.0726,0.283 0.035,0.009 0.0733,-0.0223 0.11056,-0.0212 0.0557,-0.0166 0.13309,-0.0213 0.16804,-0.0723 -0.0213,-0.10265 -0.0525,-0.20385 -0.0618,-0.30913 -0.0249,-0.0856 -0.0433,-0.17926 -0.0304,-0.26804 0.0409,-0.0401 0.11039,-0.0113 0.16198,-0.0156 0.14871,0.0126 0.29466,0.0465 0.44447,0.0503 0.18588,0.008 0.36944,0.0647 0.55586,0.0499 0.0546,-0.0265 0.024,-0.10564 0.0319,-0.15311 -0.008,-0.0459 0.0235,-0.13954 -0.0481,-0.14287 -0.20345,-0.008 -0.4022,-0.0561 -0.6058,-0.0624 -0.18121,-0.009 -0.35924,-0.0491 -0.54121,-0.0509 -0.0944,-0.006 -0.18733,-0.0294 -0.28212,-0.0306 z m 8.07159,0.59586 c 0.18516,0.005 0.37364,-0.007 0.55667,0.0171 0.0998,0.0976 0.15963,0.23151 0.24433,0.3429 0.0835,0.13058 0.18133,0.25773 0.25157,0.39362 -0.0722,0.0648 -0.15845,0.11937 -0.24182,0.16728 -0.0847,-0.0253 -0.11274,-0.13319 -0.16736,-0.19561 -0.0345,-0.0508 -0.0891,-0.155 -0.16148,-0.0946 -0.15409,0.1269 -0.36391,0.10866 -0.54954,0.0952 -0.16384,-0.0484 -0.30044,-0.17147 -0.39352,-0.31145 -0.0642,-0.12026 -0.10351,-0.2636 -0.086,-0.39854 0.17736,-0.026 0.36639,-0.0106 0.54723,-0.0158 z"
         style="opacity:1;fill:#2c634f;fill-opacity:1;fill-rule:nonzero;stroke:none;stroke-width:0.12451388;stroke-linecap:butt;stroke-linejoin:miter;stroke-miterlimit:4;stroke-dasharray:none;stroke-dashoffset:0;stroke-opacity:1;paint-order:stroke fill markers;filter:url(#filter5484)" />
      <path
         style="opacity:1;fill:#ffffff;fill-opacity:1;fill-rule:nonzero;stroke:none;stroke-width:0.12451388;stroke-linecap:butt;stroke-linejoin:miter;stroke-miterlimit:4;stroke-dasharray:none;stroke-dashoffset:0;stroke-opacity:1;paint-order:stroke fill markers"
         d="m 128.47273,378.61836 c -0.0135,0 -0.0281,4.9e-4 -0.0417,0 -0.12518,0.004 -0.25281,-0.002 -0.37362,0.0347 -0.16418,0.0185 -0.32749,0.0479 -0.48667,0.0914 -0.0446,0.009 -0.0854,0.0452 -0.0639,0.0936 0.0171,0.0626 0.0442,0.12186 0.0578,0.18546 0.0326,0.0372 0.0919,10e-4 0.13393,0.003 0.12115,-0.0178 0.23654,-0.0619 0.36016,-0.0643 0.0491,10e-4 0.0992,-0.0248 0.14637,-0.018 0.0748,0.0577 0.0442,0.16412 0.0585,0.24533 0.0101,0.21288 0.0243,0.42536 0.047,0.63705 0.0135,0.1473 0.002,0.29944 0.0399,0.44316 0.0296,0.0409 0.0911,6.3e-4 0.13208,0.007 0.0499,-0.0123 0.12888,0.008 0.15744,-0.045 -0.0217,-0.22359 -0.0168,-0.45092 -0.047,-0.67371 -0.0168,-0.26425 -0.0151,-0.53006 -0.0569,-0.79207 -0.0101,-0.0457 0.005,-0.10561 -0.0223,-0.14347 -0.0135,-0.004 -0.0272,-0.004 -0.0412,-0.005 z m 1.05861,0.11173 c -0.0485,0.0337 -0.0506,0.10685 -0.0676,0.15983 -0.005,0.0484 -0.038,0.12825 0.0318,0.14478 0.087,0.0369 0.18191,0.05 0.26913,0.0872 0.0628,0.0155 0.11948,0.0495 0.18115,0.0694 0.0386,0.0317 0.10686,0.0221 0.13106,0.0692 3.5e-4,0.0755 -0.0507,0.13727 -0.0697,0.20786 -0.0284,0.0692 -0.0556,0.13967 -0.0825,0.20887 -0.0292,0.0669 -0.0534,0.13712 -0.0822,0.20384 -0.0322,0.0775 -0.062,0.15722 -0.0922,0.2359 -0.0352,0.0576 -0.0452,0.12696 -0.0781,0.18616 -0.002,0.0489 -0.065,0.0929 -0.0321,0.14165 0.0865,0.0349 0.16719,0.0896 0.25679,0.11474 0.029,-0.0691 0.061,-0.137 0.0867,-0.20756 0.0294,-0.0634 0.0509,-0.12942 0.079,-0.1932 0.0269,-0.0633 0.0518,-0.12887 0.0795,-0.19159 0.0301,-0.0611 0.0444,-0.12952 0.0765,-0.18988 0.019,-0.0598 0.0511,-0.11559 0.066,-0.17652 0.0371,-0.0548 0.0475,-0.12229 0.0802,-0.17913 0.0226,-0.077 0.0607,-0.14807 0.0876,-0.22313 0.0243,-0.0348 0.037,-0.11282 -0.0214,-0.11976 -0.0628,-0.046 -0.13644,-0.0722 -0.20796,-0.10216 -0.0491,-0.0321 -0.10351,-0.052 -0.15946,-0.0697 -0.0632,-0.0298 -0.12922,-0.0513 -0.1941,-0.0774 -0.083,-0.0166 -0.15795,-0.0586 -0.24202,-0.0726 -0.0322,-0.008 -0.0628,-0.0253 -0.0961,-0.0268 z m -2.96273,0.44898 c -0.0521,0.007 -0.0901,0.0496 -0.1378,0.0676 -0.15224,0.11053 -0.30849,0.21692 -0.44687,0.34539 -0.0707,0.0671 -0.15509,0.12873 -0.20263,0.2146 0.0225,0.0607 0.0882,0.0975 0.12989,0.14627 0.0256,0.0304 0.0756,0.0678 0.10587,0.0203 0.12266,-0.0919 0.22467,-0.21007 0.34962,-0.30059 0.0393,-0.0336 0.11058,-0.0865 0.14922,-0.0235 0.0376,0.0574 0.0655,0.1208 0.10653,0.17481 0.0318,0.08 0.0913,0.14599 0.12384,0.22645 0.0373,0.0411 0.0522,0.0992 0.0882,0.14266 0.0933,0.16678 0.19096,0.33127 0.28533,0.49741 0.0237,0.0282 0.0303,0.0993 0.0828,0.0688 0.0591,-0.0318 0.11158,-0.0773 0.16971,-0.11191 0.0502,-0.0312 0.0423,-0.0761 0.008,-0.11754 -0.034,-0.0729 -0.0805,-0.13717 -0.11863,-0.20686 -0.0598,-0.0851 -0.0963,-0.18778 -0.15644,-0.27166 -0.0263,-0.041 -0.0427,-0.0913 -0.0763,-0.12981 -0.0536,-0.0955 -0.10501,-0.19193 -0.16265,-0.28421 -0.0503,-0.0988 -0.11427,-0.18886 -0.16485,-0.28784 -0.0384,-0.053 -0.0573,-0.12402 -0.10519,-0.16786 -0.008,-0.003 -0.0187,-0.003 -0.028,-0.002 z m 4.71252,0.52121 h -0.002 c -0.0721,0.0558 -0.1398,0.12542 -0.18756,0.20395 -0.0135,0.0491 0.0538,0.077 0.0773,0.11231 0.12636,0.1263 0.24027,0.26621 0.3457,0.4097 -0.002,0.0593 -0.0711,0.0914 -0.10553,0.13292 -0.20912,0.18975 -0.42773,0.36836 -0.63705,0.55798 -0.0393,0.028 -0.10587,0.0733 -0.0692,0.1286 0.0486,0.0633 0.0838,0.14285 0.15107,0.18807 0.0402,0.0131 0.0556,-0.0476 0.0885,-0.0616 0.15963,-0.12966 0.31014,-0.27032 0.46737,-0.40237 0.15611,-0.12572 0.29941,-0.26844 0.45713,-0.39312 0.0399,-0.0255 0.0798,-0.0802 0.0378,-0.12257 -0.0417,-0.0659 -0.0852,-0.12987 -0.12753,-0.1944 -0.0862,-0.10589 -0.15981,-0.22099 -0.25619,-0.31847 -0.0758,-0.083 -0.14972,-0.17106 -0.237,-0.24122 z m -6.11191,0.91143 c -0.0449,0.0169 -0.0494,0.0822 -0.0758,0.11774 -0.0242,0.0466 -0.0564,0.0865 -0.0689,0.13874 -0.0409,0.0662 -0.0607,0.14136 -0.0943,0.21148 -0.0219,0.0658 -0.0503,0.13018 -0.0728,0.19632 -0.0304,0.07 -0.0396,0.1472 -0.0691,0.21791 -0.0168,0.0439 0.007,0.0972 0.0607,0.0925 0.0704,0.006 0.13628,0.0366 0.20447,0.0472 0.0392,-0.0236 0.0246,-0.0854 0.0525,-0.12017 0.024,-0.072 0.0376,-0.14709 0.0706,-0.21609 0.0169,-0.0648 0.0525,-0.12282 0.0717,-0.18667 0.0256,-0.0309 0.06,-0.0949 0.0988,-0.0449 0.0645,0.0485 0.13493,0.0898 0.20123,0.13372 0.0553,0.0483 0.12687,0.0763 0.18356,0.12479 0.17651,0.11907 0.35716,0.23192 0.53135,0.35434 0.0496,0.0131 0.0803,0.084 0.13645,0.0638 0.0404,-0.0708 0.0748,-0.14639 0.11694,-0.2159 0.007,-0.078 -0.0911,-0.0987 -0.13912,-0.13915 -0.10738,-0.0724 -0.21482,-0.14787 -0.32411,-0.2154 -0.0439,-0.0367 -0.0976,-0.0603 -0.1435,-0.0965 -0.14099,-0.084 -0.27115,-0.18392 -0.4107,-0.26975 -0.0405,-0.0266 -0.0788,-0.0525 -0.11897,-0.0804 -0.0724,-0.0351 -0.12434,-0.11134 -0.21068,-0.11373 z m 7.00707,0.41663 c -0.007,-6.4e-4 -0.0151,0 -0.0229,0.002 -0.0711,0.0116 -0.13947,0.0446 -0.20296,0.0739 -0.0639,0.0733 0.0318,0.16178 0.0425,0.239 0.047,0.14315 0.0943,0.28891 0.12234,0.43623 -0.0243,0.0395 -0.0975,0.007 -0.13713,0.0204 -0.66444,0.0111 -1.32936,0.022 -1.99373,0.008 -0.12216,-0.0326 -0.1924,-0.15636 -0.30842,-0.20505 -0.083,-0.0385 -0.14872,-0.10531 -0.24003,-0.12378 -0.087,-0.0373 -0.16945,-0.0848 -0.26522,-0.0932 -0.28907,-0.0926 -0.60068,-0.0701 -0.89454,-0.0134 -0.0995,0.0302 -0.20722,0.0487 -0.29807,0.0967 -0.0428,0.0278 -0.0948,0.0403 -0.13478,0.0722 -0.27929,0.1573 -0.52434,0.38679 -0.69178,0.66187 -0.0224,0.0515 -0.0607,0.0901 -0.0734,0.14546 -0.0576,0.0912 -0.0849,0.20014 -0.11879,0.30281 -0.11914,0.4304 -0.0662,0.90275 0.13409,1.30062 0.18206,0.36443 0.4992,0.65432 0.86552,0.82723 0.18184,0.0786 0.37771,0.13097 0.57615,0.14929 0.18682,0.006 0.37747,0.015 0.55939,-0.0333 0.10737,0.0131 0.13275,0.14669 0.20073,0.21418 0.17451,0.26002 0.35493,0.51778 0.52273,0.78122 0.005,0.0883 -0.11595,0.0794 -0.1714,0.11222 -0.13677,0.0391 -0.27206,0.0803 -0.41352,0.10237 -0.11106,0.0268 -0.22656,0.0225 -0.33996,0.028 -0.007,-0.26872 -0.005,-0.54079 -0.0184,-0.80744 -0.0944,0.002 -0.19669,3e-5 -0.2865,0.019 -0.0151,0.27111 -0.0135,0.543 -0.0198,0.81447 -0.47714,0.003 -0.95638,-0.0909 -1.39325,-0.2818 -0.0701,0.002 -0.13745,-0.0755 -0.0797,-0.13683 0.13073,-0.19499 0.26587,-0.39134 0.40187,-0.58039 0.0501,-0.0625 0.0694,-0.11212 -0.0202,-0.14799 -0.0613,-0.0209 -0.11746,-0.0956 -0.18556,-0.0786 -0.10906,0.11277 -0.18042,0.25855 -0.27768,0.38217 -0.0546,0.0927 -0.11578,0.17666 -0.18033,0.26272 -0.0279,0.0449 -0.0773,0.12112 -0.13729,0.0706 -0.29515,-0.1576 -0.55276,-0.37536 -0.77338,-0.6257 -0.10402,-0.12694 -0.22665,-0.2469 -0.29547,-0.39724 0.002,-0.0654 0.0991,-0.058 0.14031,-0.0915 0.23786,-0.11137 0.48479,-0.19987 0.72315,-0.31144 0.0541,5.7e-4 0.0931,-0.0529 0.0586,-0.10047 -0.0484,-0.0561 -0.0632,-0.13961 -0.11813,-0.18777 -0.0889,-0.003 -0.16484,0.0693 -0.24854,0.0943 -0.30339,0.13945 -0.60881,0.27482 -0.91475,0.40839 -0.0415,0.0244 -0.13476,0.0647 -0.0704,0.11514 0.0775,0.12914 0.17728,0.25053 0.24634,0.38096 v 5.59552 c 0.0906,0.0893 0.23257,0.083 0.34147,0.14156 0.0781,0.0235 0.15443,0.0492 0.22966,0.0803 0.28693,0.09 0.57005,0.19488 0.85628,0.28853 0.21866,0.0801 0.44157,0.1494 0.66066,0.22655 0.0981,0.0376 0.19833,0.0686 0.29797,0.10128 0.0728,0.0236 0.14149,0.0526 0.21481,0.0758 0.12014,0.0444 0.243,0.075 0.36066,0.12428 0.14367,0.0384 0.2813,0.10482 0.42536,0.14657 0.28399,0.0916 0.56532,0.18844 0.84723,0.28824 0.20869,0.0638 0.41208,0.14153 0.61888,0.21078 0.079,0.0254 0.15643,0.0511 0.23427,0.0795 0.11426,0.0287 0.1764,-0.10541 0.25308,-0.16407 0.49108,-0.51163 0.99325,-1.0131 1.47261,-1.53571 0.0516,-0.0726 0.0135,-0.17393 0.0277,-0.2577 0.004,-0.76648 0.0101,-1.5336 -0.008,-2.29975 -0.0564,-0.046 -0.14686,-0.0136 -0.21508,-0.0249 -0.29317,-0.004 -0.61965,0.0257 -0.86683,-0.16486 -0.23841,-0.16486 -0.36285,-0.43599 -0.52371,-0.6676 -0.0203,-0.038 -0.0704,-0.0934 -0.008,-0.12246 0.0711,-0.0433 0.13745,-0.12058 0.22203,-0.1292 0.10871,0.10932 0.18003,0.25205 0.27337,0.37483 0.081,0.11255 0.16601,0.23493 0.28621,0.30642 0.0744,0.0196 0.13375,0.0799 0.21662,0.0585 h 3.75419 c 0.29363,-0.0718 0.58706,-0.1887 0.79789,-0.41382 0.13325,-0.13177 0.27699,-0.25698 0.39069,-0.40578 -0.13862,-0.26094 -0.33242,-0.4902 -0.48062,-0.74575 0.0689,-0.0761 0.16063,-0.14221 0.2556,-0.18174 0.0946,0.072 0.14299,0.19387 0.21539,0.28743 0.0882,0.11846 0.14988,0.26257 0.26291,0.35956 0.0657,0.0121 0.078,-0.0899 0.10906,-0.1298 0.1361,-0.26933 0.11292,-0.60104 -0.0465,-0.85507 -0.18434,-0.29058 -0.38558,-0.57028 -0.57376,-0.85847 -0.34032,-0.49602 -0.66989,-0.99985 -1.00997,-1.49634 -0.31231,-0.45118 -0.59996,-0.92006 -0.93081,-1.35808 -0.23989,-0.29448 -0.58145,-0.48548 -0.93443,-0.61224 -0.39344,-0.12788 -0.81302,-0.10607 -1.22095,-0.12166 -0.019,-0.0389 -0.0252,-0.10168 -0.0726,-0.1061 z m -4.30345,0.86882 h 0.004 c 0.098,0.0707 0.14669,0.19491 0.22031,0.28944 0.0884,0.14011 0.19346,0.27343 0.27035,0.41884 -0.10619,0.13354 -0.2648,0.21549 -0.39221,0.32802 -0.22337,0.17675 -0.44937,0.35093 -0.67483,0.52453 -0.0659,0.0421 -0.0722,-0.0711 -0.0795,-0.11001 -0.0202,-0.23791 -0.0225,-0.4892 0.0684,-0.7134 0.0499,-0.16036 0.14099,-0.30928 0.24061,-0.44426 0.10233,-0.10837 0.20333,-0.23585 0.3437,-0.29336 z m -3.1752,0.64619 c -0.0607,-0.002 -0.0329,0.0816 -0.04,0.11855 0.004,0.20954 0.0177,0.4196 0.0642,0.6244 0.008,0.097 0.0333,0.19461 0.0726,0.283 0.035,0.009 0.0733,-0.0223 0.11056,-0.0212 0.0557,-0.0166 0.13309,-0.0213 0.16804,-0.0723 -0.0213,-0.10265 -0.0525,-0.20385 -0.0618,-0.30913 -0.0249,-0.0856 -0.0433,-0.17926 -0.0304,-0.26804 0.0409,-0.0401 0.11039,-0.0113 0.16198,-0.0156 0.14871,0.0126 0.29466,0.0465 0.44447,0.0503 0.18588,0.008 0.36944,0.0647 0.55586,0.0499 0.0546,-0.0265 0.024,-0.10564 0.0319,-0.15311 -0.008,-0.0459 0.0235,-0.13954 -0.0481,-0.14287 -0.20345,-0.008 -0.4022,-0.0561 -0.6058,-0.0624 -0.18121,-0.009 -0.35924,-0.0491 -0.54121,-0.0509 -0.0944,-0.006 -0.18733,-0.0294 -0.28212,-0.0306 z m 8.07159,0.59586 c 0.18516,0.005 0.37364,-0.007 0.55667,0.0171 0.0998,0.0976 0.15963,0.23151 0.24433,0.3429 0.0835,0.13058 0.18133,0.25773 0.25157,0.39362 -0.0722,0.0648 -0.15845,0.11937 -0.24182,0.16728 -0.0847,-0.0253 -0.11274,-0.13319 -0.16736,-0.19561 -0.0345,-0.0508 -0.0891,-0.155 -0.16148,-0.0946 -0.15409,0.1269 -0.36391,0.10866 -0.54954,0.0952 -0.16384,-0.0484 -0.30044,-0.17147 -0.39352,-0.31145 -0.0642,-0.12026 -0.10351,-0.2636 -0.086,-0.39854 0.17736,-0.026 0.36639,-0.0106 0.54723,-0.0158 z"
         id="path4617"
         inkscape:connector-curvature="0" />
    </g>
    <rect
       style="fill:#4e9d7f;fill-opacity:1;stroke-width:0.26458332"
       id="rect1147"
       width="3.3018608"
       height="16.036163"
       x="0"
       y="280.96384" />
    <g
       aria-label="Weidemonitor"
       style="font-style:normal;font-variant:normal;font-weight:normal;font-stretch:normal;font-size:10.58333302px;line-height:1.25;font-family:'Poiret One';-inkscape-font-specification:'Poiret One';letter-spacing:0px;word-spacing:0px;fill:#efecec;fill-opacity:1;stroke:#ffffff;stroke-width:0.30000001;stroke-miterlimit:4;stroke-dasharray:none;stroke-opacity:1"
       id="text1645">
      <path
         d="m 24.398902,292.89652 -3.481917,-8.07508 h 0.391583 l 3.14325,7.27075 1.471084,-3.43958 -1.640417,-3.83117 h 0.381 l 1.471083,3.48192 1.513417,-3.48192 h 0.296333 l -1.651,3.82059 1.502834,3.48191 3.206749,-7.3025 h 0.28575 l -3.524249,8.07508 -1.68275,-3.87349 z"
         style="font-style:normal;font-variant:normal;font-weight:normal;font-stretch:normal;font-family:'Poiret One';-inkscape-font-specification:'Poiret One';fill:#efecec;fill-opacity:1;stroke:#ffffff;stroke-width:0.30000001;stroke-miterlimit:4;stroke-dasharray:none;stroke-opacity:1"
         id="path837" />
      <path
         d="m 33.235966,292.88594 h -0.09525 q -1.005417,0 -1.756833,-0.75141 -0.740834,-0.762 -0.740834,-1.76742 0,-1.00542 0.740834,-1.73567 0.740833,-0.74083 1.830916,-0.74083 1.090084,0 1.87325,0.86783 l -3.323166,3.28084 q 0.687916,0.55033 1.322916,0.55033 0.635,0 1.132417,-0.28575 0.508,-0.29633 0.836083,-0.78317 v 0.53975 q -0.751416,0.8255 -1.820333,0.8255 z m -0.116417,-4.699 q -0.836083,0 -1.49225,0.65617 -0.645583,0.64558 -0.645583,1.49225 0,0.84667 0.560917,1.48167 l 3.07975,-3.05859 q -0.656167,-0.5715 -1.502834,-0.5715 z"
         style="font-style:normal;font-variant:normal;font-weight:normal;font-stretch:normal;font-family:'Poiret One';-inkscape-font-specification:'Poiret One';fill:#efecec;fill-opacity:1;stroke:#ffffff;stroke-width:0.30000001;stroke-miterlimit:4;stroke-dasharray:none;stroke-opacity:1"
         id="path839" />
      <path
         d="m 36.569704,288.00703 v 4.75191 h -0.338667 v -4.75191 z m -0.169333,-1.16417 q -0.306917,0 -0.306917,-0.28575 0,-0.28575 0.306917,-0.28575 0.306916,0 0.306916,0.28575 0,0.28575 -0.306916,0.28575 z"
         style="font-style:normal;font-variant:normal;font-weight:normal;font-stretch:normal;font-family:'Poiret One';-inkscape-font-specification:'Poiret One';fill:#efecec;fill-opacity:1;stroke:#ffffff;stroke-width:0.30000001;stroke-miterlimit:4;stroke-dasharray:none;stroke-opacity:1"
         id="path841" />
      <path
         d="m 42.7292,284.82144 v 7.9375 h -0.338667 v -1.15358 q -0.3175,0.58208 -0.92075,0.93133 -0.60325,0.33867 -1.23825,0.33867 -1.04775,0 -1.788583,-0.73025 -0.73025,-0.74083 -0.73025,-1.76742 0,-1.02658 0.73025,-1.75683 0.740833,-0.74083 1.788583,-0.74083 0.656167,0 1.259417,0.34925 0.613833,0.34925 0.899583,0.93133 v -4.33917 z m -4.677833,5.56684 q 0,0.889 0.635,1.54516 0.635,0.64558 1.523999,0.64558 0.899584,0 1.545167,-0.64558 0.656167,-0.65616 0.656167,-1.54516 0,-0.889 -0.656167,-1.54517 -0.645583,-0.66675 -1.534583,-0.66675 -0.889,0 -1.534583,0.65617 -0.635,0.65616 -0.635,1.55575 z"
         style="font-style:normal;font-variant:normal;font-weight:normal;font-stretch:normal;font-family:'Poiret One';-inkscape-font-specification:'Poiret One';fill:#efecec;fill-opacity:1;stroke:#ffffff;stroke-width:0.30000001;stroke-miterlimit:4;stroke-dasharray:none;stroke-opacity:1"
         id="path843" />
      <path
         d="m 46.380431,292.88594 h -0.09525 q -1.005416,0 -1.756833,-0.75141 -0.740833,-0.762 -0.740833,-1.76742 0,-1.00542 0.740833,-1.73567 0.740833,-0.74083 1.830917,-0.74083 1.090083,0 1.87325,0.86783 l -3.323167,3.28084 q 0.687917,0.55033 1.322917,0.55033 0.635,0 1.132416,-0.28575 0.508,-0.29633 0.836084,-0.78317 v 0.53975 q -0.751417,0.8255 -1.820334,0.8255 z m -0.116416,-4.699 q -0.836084,0 -1.49225,0.65617 -0.645584,0.64558 -0.645584,1.49225 0,0.84667 0.560917,1.48167 l 3.07975,-3.05859 q -0.656167,-0.5715 -1.502833,-0.5715 z"
         style="font-style:normal;font-variant:normal;font-weight:normal;font-stretch:normal;font-family:'Poiret One';-inkscape-font-specification:'Poiret One';fill:#efecec;fill-opacity:1;stroke:#ffffff;stroke-width:0.30000001;stroke-miterlimit:4;stroke-dasharray:none;stroke-opacity:1"
         id="path845" />
      <path
         d="m 52.53992,289.00186 q 0.15875,-0.508 0.60325,-0.81492 0.455084,-0.30691 1.100667,-0.30691 0.645583,0 1.132417,0.46566 0.486833,0.46567 0.486833,1.25942 v 3.15383 H 55.52442 v -3.15383 q 0,-0.61383 -0.402166,-1.016 -0.402167,-0.41275 -0.973667,-0.41275 -0.560917,0 -1.005417,0.42333 -0.433916,0.42334 -0.433916,0.98425 v 3.175 h -0.338667 v -3.175 q 0,-0.5715 -0.402167,-0.98425 -0.402166,-0.42333 -0.973666,-0.42333 -0.5715,0 -0.994834,0.42333 -0.423333,0.42334 -0.423333,0.98425 v 3.175 h -0.338666 v -4.7625 h 0.338666 v 0.66675 q 0.211667,-0.3175 0.624417,-0.55033 0.423333,-0.23283 0.867833,-0.23283 0.455083,0 0.867833,0.3175 0.41275,0.30691 0.60325,0.80433 z"
         style="font-style:normal;font-variant:normal;font-weight:normal;font-stretch:normal;font-family:'Poiret One';-inkscape-font-specification:'Poiret One';fill:#efecec;fill-opacity:1;stroke:#ffffff;stroke-width:0.30000001;stroke-miterlimit:4;stroke-dasharray:none;stroke-opacity:1"
         id="path847" />
      <path
         d="m 59.344986,292.87536 q -1.016,0 -1.74625,-0.75142 -0.73025,-0.762 -0.73025,-1.76741 0,-1.00542 0.740834,-1.73567 0.740833,-0.74083 1.778,-0.74083 1.04775,0 1.778,0.74083 0.740833,0.73025 0.740833,1.74625 0,1.00542 -0.719667,1.75683 -0.719666,0.75142 -1.74625,0.75142 z m 2.2225,-2.48708 q 0,-0.89959 -0.645583,-1.55575 -0.635,-0.65617 -1.524,-0.65617 -0.889,0 -1.545167,0.66675 -0.645583,0.65617 -0.645583,1.54517 0,0.889 0.645583,1.54516 0.656167,0.64558 1.545167,0.64558 0.899583,0 1.534583,-0.64558 0.635,-0.65616 0.635,-1.54516 z"
         style="font-style:normal;font-variant:normal;font-weight:normal;font-stretch:normal;font-family:'Poiret One';-inkscape-font-specification:'Poiret One';fill:#efecec;fill-opacity:1;stroke:#ffffff;stroke-width:0.30000001;stroke-miterlimit:4;stroke-dasharray:none;stroke-opacity:1"
         id="path849" />
      <path
         d="m 63.250232,292.75894 h -0.338666 v -4.7625 h 0.338666 v 0.96309 q 0.53975,-1.0795 1.8415,-1.0795 0.889,0 1.49225,0.61383 0.60325,0.61383 0.60325,1.49225 v 2.77283 h -0.338667 v -2.77283 q 0,-0.73025 -0.518583,-1.27 -0.508,-0.53975 -1.23825,-0.53975 -0.73025,0 -1.291166,0.53975 -0.550334,0.53975 -0.550334,1.27 z"
         style="font-style:normal;font-variant:normal;font-weight:normal;font-stretch:normal;font-family:'Poiret One';-inkscape-font-specification:'Poiret One';fill:#efecec;fill-opacity:1;stroke:#ffffff;stroke-width:0.30000001;stroke-miterlimit:4;stroke-dasharray:none;stroke-opacity:1"
         id="path851" />
      <path
         d="m 68.933462,288.00703 v 4.75191 h -0.338666 v -4.75191 z m -0.169333,-1.16417 q -0.306917,0 -0.306917,-0.28575 0,-0.28575 0.306917,-0.28575 0.306917,0 0.306917,0.28575 0,0.28575 -0.306917,0.28575 z"
         style="font-style:normal;font-variant:normal;font-weight:normal;font-stretch:normal;font-family:'Poiret One';-inkscape-font-specification:'Poiret One';fill:#efecec;fill-opacity:1;stroke:#ffffff;stroke-width:0.30000001;stroke-miterlimit:4;stroke-dasharray:none;stroke-opacity:1"
         id="path853" />
      <path
         d="m 72.044956,292.52611 v 0.29633 q -0.751417,0 -1.280583,-0.49742 -0.529167,-0.50799 -0.529167,-1.29116 v -4.953 h 0.338667 v 1.92617 h 1.4605 v 0.29633 h -1.4605 v 2.7305 q 0,0.64558 0.423333,1.06892 0.433917,0.42333 1.04775,0.42333 z"
         style="font-style:normal;font-variant:normal;font-weight:normal;font-stretch:normal;font-family:'Poiret One';-inkscape-font-specification:'Poiret One';fill:#efecec;fill-opacity:1;stroke:#ffffff;stroke-width:0.30000001;stroke-miterlimit:4;stroke-dasharray:none;stroke-opacity:1"
         id="path855" />
      <path
         d="m 75.103531,292.87536 q -1.016,0 -1.74625,-0.75142 -0.73025,-0.762 -0.73025,-1.76741 0,-1.00542 0.740834,-1.73567 0.740833,-0.74083 1.778,-0.74083 1.04775,0 1.778,0.74083 0.740833,0.73025 0.740833,1.74625 0,1.00542 -0.719667,1.75683 -0.719666,0.75142 -1.74625,0.75142 z m 2.2225,-2.48708 q 0,-0.89959 -0.645583,-1.55575 -0.635,-0.65617 -1.524,-0.65617 -0.889,0 -1.545167,0.66675 -0.645583,0.65617 -0.645583,1.54517 0,0.889 0.645583,1.54516 0.656167,0.64558 1.545167,0.64558 0.899583,0 1.534583,-0.64558 0.635,-0.65616 0.635,-1.54516 z"
         style="font-style:normal;font-variant:normal;font-weight:normal;font-stretch:normal;font-family:'Poiret One';-inkscape-font-specification:'Poiret One';fill:#efecec;fill-opacity:1;stroke:#ffffff;stroke-width:0.30000001;stroke-miterlimit:4;stroke-dasharray:none;stroke-opacity:1"
         id="path857" />
      <path
         d="m 81.453527,288.64203 q -0.465667,-0.46567 -1.026583,-0.46567 -0.560917,0 -0.994834,0.42333 -0.423333,0.42334 -0.423333,0.98425 v 3.175 H 78.67011 v -4.7625 h 0.338667 v 0.70909 q 0.1905,-0.35984 0.592667,-0.59267 0.402166,-0.23283 0.899583,-0.23283 0.497417,0 0.9525,0.33866 z"
         style="font-style:normal;font-variant:normal;font-weight:normal;font-stretch:normal;font-family:'Poiret One';-inkscape-font-specification:'Poiret One';fill:#efecec;fill-opacity:1;stroke:#ffffff;stroke-width:0.30000001;stroke-miterlimit:4;stroke-dasharray:none;stroke-opacity:1"
         id="path859" />
    </g>
  </g>
</svg>
